HIERARCHY
ROOT joint_Root
{
  OFFSET 0 0 0
  CHANNELS 6 Xposition Yposition Zposition Zrotation Xrotation Yrotation
  JOINT Hips
  {
    OFFSET -3.80622 93.0864 3.55978
    CHANNELS 6 Xposition Yposition Zposition Zrotation Xrotation Yrotation
    JOINT Spine
    {
      OFFSET 15.7357 0 0
      CHANNELS 6 Xposition Yposition Zposition Zrotation Xrotation Yrotation
      JOINT Chest
      {
        OFFSET 8.98455 -0.406207 0
        CHANNELS 6 Xposition Yposition Zposition Zrotation Xrotation Yrotation
        JOINT Neck
        {
          OFFSET 16.3773 0 0
          CHANNELS 6 Xposition Yposition Zposition Zrotation Xrotation Yrotation
          JOINT Head
          {
            OFFSET 6.45672 0 0
            CHANNELS 6 Xposition Yposition Zposition Zrotation Xrotation Yrotation
            End Site
            {
              OFFSET 10 0 0
            }
          }
        }
        JOINT Shoulder_L
        {
          OFFSET 12.9942 -0.242716 4.98039
          CHANNELS 6 Xposition Yposition Zposition Zrotation Xrotation Yrotation
          JOINT UpperArm_L
          {
            OFFSET 5.34809 0 0
            CHANNELS 6 Xposition Yposition Zposition Zrotation Xrotation Yrotation
            JOINT LowerArm_L
            {
              OFFSET 24.3286 1.87007e-05 0
              CHANNELS 6 Xposition Yposition Zposition Zrotation Xrotation Yrotation
              JOINT Hand_L
              {
                OFFSET 22.2916 0 0
                CHANNELS 6 Xposition Yposition Zposition Zrotation Xrotation Yrotation
                End Site
                {
                  OFFSET 5 0 0
                }
              }
            }
          }
        }
        JOINT Shoulder_R
        {
          OFFSET 12.9945 -0.242716 -4.98039
          CHANNELS 6 Xposition Yposition Zposition Zrotation Xrotation Yrotation
          JOINT UpperArm_R
          {
            OFFSET -5.34813 0 0
            CHANNELS 6 Xposition Yposition Zposition Zrotation Xrotation Yrotation
            JOINT LowerArm_R
            {
              OFFSET -24.3289 0.000322201 0
              CHANNELS 6 Xposition Yposition Zposition Zrotation Xrotation Yrotation
              JOINT Hand_R
              {
                OFFSET -22.2915 -0.000108084 0
                CHANNELS 6 Xposition Yposition Zposition Zrotation Xrotation Yrotation
                End Site
                {
                  OFFSET -5 0 0
                }
              }
            }
          }
        }
      }
    }
    JOINT UpperLeg_L
    {
      OFFSET -2.19248 -6.46944 0
      CHANNELS 6 Xposition Yposition Zposition Zrotation Xrotation Yrotation
      JOINT LowerLeg_L
      {
        OFFSET 39.0811 0 -1.23785e-05
        CHANNELS 6 Xposition Yposition Zposition Zrotation Xrotation Yrotation
        JOINT Foot_L
        {
          OFFSET 40.9854 0 -1.26872e-05
          CHANNELS 6 Xposition Yposition Zposition Zrotation Xrotation Yrotation
          JOINT Toes_L
          {
            OFFSET 11.7543 0 0
            CHANNELS 6 Xposition Yposition Zposition Zrotation Xrotation Yrotation
            End Site
            {
              OFFSET 5 0 0
            }
          }
        }
      }
    }
    JOINT UpperLeg_R
    {
      OFFSET -2.19251 6.46944 0
      CHANNELS 6 Xposition Yposition Zposition Zrotation Xrotation Yrotation
      JOINT LowerLeg_R
      {
        OFFSET -39.0811 -0.00228153 -0.0401928
        CHANNELS 6 Xposition Yposition Zposition Zrotation Xrotation Yrotation
        JOINT Foot_R
        {
          OFFSET -40.9854 0 0
          CHANNELS 6 Xposition Yposition Zposition Zrotation Xrotation Yrotation
          JOINT Toes_R
          {
            OFFSET -11.7543 0 0
            CHANNELS 6 Xposition Yposition Zposition Zrotation Xrotation Yrotation
            End Site
            {
              OFFSET -5 0 0
            }
          }
        }
      }
    }
  }
}
MOTION
Frames:	7
Frame Time:	0.0333333
0 0 0 0 0 -0 4.7818 91.4366 6.97457 94.7988 -1.6883 2.60511 15.7357 5.1072e-06 -5.51765e-07 -94.5396 77.8483 91.0149 8.98455 -0.406207 -4.3199e-07 3.76279 0.402717 -1.61628 16.3773 -1.3905e-06 -6.99897e-07 10.8242 -0.270015 1.3303 6.45672 -1.25837e-06 -1.02172e-07 -2.02004 -0.305117 3.80292 12.9942 -0.242716 4.98039 -87.9173 0.638156 -81.1753 5.34809 -7.22636e-06 -6.2814e-07 -74.1217 -45.9965 -2.60222 24.3286 1.87007e-05 4.90208e-06 4.50963e-05 -4.50477e-06 -107.171 22.2916 -9.88446e-07 4.63217e-06 32.2802 13.9327 -5.9748 12.9945 -0.242716 -4.98039 92.3933 -6.06401 -86.9989 -5.34813 -1.25947e-06 -3.79883e-06 -75.5803 -20.4583 -13.7104 -24.3289 0.000322201 -8.65921e-06 -0.000583452 0.000214333 -134.614 -22.2915 -0.000108084 -4.47941e-06 33.5818 24.1352 -12.9439 -2.19248 -6.46944 -1.22534e-07 174.699 -16.3546 9.46345 39.0811 -6.73843e-06 -1.23785e-05 -9.24388e-07 1.18641e-06 7.54874 40.9854 -6.48686e-06 -1.26872e-05 9.63255 24.5585 -67.4647 11.7543 -2.30145e-07 3.05095e-06 -4.73549e-16 -1.59028e-15 -16.5824 -2.19251 6.46944 -1.45247e-06 178.643 -37.2236 176.613 -39.0811 -0.00228153 -0.0401928 4.29152e-05 -0.000131489 30.4888 -40.9854 7.72618e-06 5.99936e-06 -13.404 -27.9325 -76.9668 -11.7543 -5.6619e-06 -5.58687e-06 0 0 -16.5787 
0 0 0 0 0 -0 4.56441 91.5369 6.88924 94.6305 -1.30296 2.54627 15.7357 5.1072e-06 -5.51765e-07 -94.6635 78.4165 91.1974 8.98455 -0.406207 -4.3199e-07 3.75768 0.413792 -1.58559 16.3773 -1.3905e-06 -6.99897e-07 10.1098 -0.488394 2.41252 6.45672 -1.25837e-06 -1.02172e-07 -2.80442 -0.637085 4.4896 12.9942 -0.242716 4.98039 -87.9489 0.732431 -81.3569 5.34809 -7.22636e-06 -6.2814e-07 -73.1576 -48.4301 -1.18536 24.3286 1.87007e-05 4.90208e-06 4.57764e-05 1.34855e-15 -101.081 22.2916 -9.88446e-07 4.63217e-06 34.417 8.63036 -2.54702 12.9945 -0.242716 -4.98039 92.3766 -5.57308 -87.3057 -5.34813 -1.25947e-06 -3.79883e-06 -73.9867 -18.3637 -11.9106 -24.3289 0.000322201 -8.65921e-06 -0.00056076 0.000193876 -134.901 -22.2915 -0.000108084 -4.47941e-06 33.9044 41.4629 -30.679 -2.19248 -6.46944 -1.22534e-07 175.116 -16.4952 9.51483 39.0811 -6.73843e-06 -1.23785e-05 -9.13581e-07 1.14533e-06 7.28488 40.9854 -6.48686e-06 -1.26872e-05 9.45327 25.1584 -67.2758 11.7543 -2.30145e-07 3.05095e-06 -3.31857e-15 0 -16.5824 -2.19251 6.46944 -1.45247e-06 178.942 -36.951 176.825 -39.0811 -0.00228153 -0.0401928 4.16288e-05 -0.000132238 29.9299 -40.9854 7.72618e-06 5.99936e-06 -13.1253 -28.1694 -76.6034 -11.7543 -5.6619e-06 -5.58687e-06 2.3672e-16 7.95139e-16 -16.5787 
0 0 0 0 0 -0 4.319 91.6476 6.7852 94.4249 -0.921308 2.47489 15.7357 5.1072e-06 -5.51765e-07 -94.8528 78.9623 91.4309 8.98455 -0.406207 -4.3199e-07 3.76553 0.431844 -1.52818 16.3773 -1.3905e-06 -6.99897e-07 9.42936 -0.711008 3.52379 6.45672 -1.25837e-06 -1.02172e-07 -3.60283 -1.03841 5.37007 12.9942 -0.242716 4.98039 -87.959 0.749108 -81.6403 5.34809 -7.22636e-06 -6.2814e-07 -72.2489 -50.2456 0.0018967 24.3286 1.87007e-05 4.90208e-06 3.05699e-05 1.26258e-06 -94.7463 22.2916 -9.88446e-07 4.63217e-06 36.7884 4.81781 0.44791 12.9945 -0.242716 -4.98039 92.3742 -5.06911 -87.6348 -5.34813 -1.25947e-06 -3.79883e-06 -73.3228 -19.0938 -11.1324 -24.3289 0.000322201 -8.65921e-06 -0.000570598 0.000205616 -135.172 -22.2915 -0.000108084 -4.47941e-06 42.3929 52.9901 -52.7784 -2.19248 -6.46944 -1.22534e-07 175.543 -16.4753 9.54247 39.0811 -6.73843e-06 -1.23785e-05 -9.31476e-07 1.09822e-06 6.98256 40.9854 -6.48686e-06 -1.26872e-05 9.20966 25.5966 -67.0101 11.7543 -2.30145e-07 3.05095e-06 -9.47098e-16 -3.18055e-15 -16.5824 -2.19251 6.46944 -1.45247e-06 179.27 -36.658 177.025 -39.0811 -0.00228153 -0.0401928 4.01882e-05 -0.000133057 29.3076 -40.9854 7.72618e-06 5.99936e-06 -12.8041 -28.3971 -76.1667 -11.7543 -5.6619e-06 -5.58687e-06 0 0 -16.5787 
0 0 0 0 0 -0 4.04167 91.7789 6.67455 94.1626 -0.544295 2.40773 15.7357 5.1072e-06 -5.51765e-07 -95.0273 79.4852 91.6254 8.98455 -0.406207 -4.3199e-07 3.75636 0.439756 -1.42704 16.3773 -1.3905e-06 -6.99897e-07 8.82913 -0.916018 4.6387 6.45672 -1.25837e-06 -1.02172e-07 -4.33015 -1.43748 6.35441 12.9942 -0.242716 4.98039 -87.9727 0.638449 -82.0188 5.34809 -7.22636e-06 -6.2814e-07 -71.4401 -51.5131 0.966194 24.3286 1.87007e-05 4.90208e-06 4.48147e-05 -4.23158e-06 -87.8621 22.2916 -9.88446e-07 4.63217e-06 39.9786 3.7956 1.04982 12.9945 -0.242716 -4.98039 92.3425 -4.61716 -87.6921 -5.34813 -1.25947e-06 -3.79883e-06 -73.6345 -21.9648 -11.4927 -24.3289 0.000322201 -8.65921e-06 -0.000559747 0.000194887 -135.199 -22.2915 -0.000108084 -4.47941e-06 47.4944 53.4873 -60.4194 -2.19248 -6.46944 -1.22534e-07 175.98 -16.1347 9.56135 39.0811 -6.73843e-06 -1.23785e-05 -9.18106e-07 1.0427e-06 6.62663 40.9854 -6.48686e-06 -1.26872e-05 8.67312 25.777 -66.5478 11.7543 -2.30145e-07 3.05095e-06 -3.31857e-15 0 -16.5824 -2.19251 6.46944 -1.45247e-06 179.664 -36.3168 177.284 -39.0811 -0.00228153 -0.0401928 3.83819e-05 -0.000134055 28.5328 -40.9854 7.72618e-06 5.99936e-06 -12.3955 -28.6049 -75.6079 -11.7543 -5.6619e-06 -5.58687e-06 -1.06635e-15 -7.95139e-16 -16.5787 
0 0 0 0 0 -0 3.73737 91.9376 6.56783 93.8473 -0.176644 2.35361 15.7357 5.1072e-06 -5.51765e-07 -95.0795 79.9861 91.6688 8.98455 -0.406207 -4.3199e-07 3.72188 0.419419 -1.27414 16.3773 -1.3905e-06 -6.99897e-07 8.28521 -1.09501 5.74671 6.45672 -1.25837e-06 -1.02172e-07 -4.87087 -1.75142 7.30758 12.9942 -0.242716 4.98039 -88.0023 0.428963 -82.4674 5.34809 -7.22636e-06 -6.2814e-07 -70.576 -52.1701 1.87436 24.3286 1.87007e-05 4.90208e-06 4.33139e-05 -2.33612e-06 -80.7675 22.2916 -9.88446e-07 4.63217e-06 43.7344 4.61521 -0.488901 12.9945 -0.242716 -4.98039 92.2689 -4.23391 -87.4265 -5.34813 -1.25947e-06 -3.79883e-06 -74.8479 -25.8554 -12.8901 -24.3289 0.000322201 -8.65921e-06 -0.000571948 0.000204265 -134.794 -22.2915 -0.000108084 -4.47941e-06 41.6807 44.7665 -45.0627 -2.19248 -6.46944 -1.22534e-07 176.374 -15.2618 9.55118 39.0811 -6.73843e-06 -1.23785e-05 -9.04468e-07 9.82728e-07 6.2426 40.9854 -6.48686e-06 -1.26872e-05 7.69114 25.5096 -65.7707 11.7543 -2.30145e-07 3.05095e-06 0.0284212 0.0343338 -16.6033 -2.19251 6.46944 -1.45247e-06 -179.877 -35.9309 177.661 -39.0811 -0.00228153 -0.0401928 2.19245e-05 -0.000108245 27.5329 -40.9854 7.72618e-06 5.99936e-06 -11.8812 -28.792 -74.9035 -11.7543 -5.6619e-06 -5.58687e-06 7.11268e-16 -3.97569e-16 -16.5787 
0 0 0 0 0 -0 3.4119 92.0966 6.46863 93.4976 0.178564 2.29333 15.7357 5.1072e-06 -5.51765e-07 -94.9399 80.4465 91.4985 8.98455 -0.406207 -4.3199e-07 3.67231 0.364787 -1.06343 16.3773 -1.3905e-06 -6.99897e-07 7.77669 -1.2501 6.79541 6.45672 -1.25837e-06 -1.02172e-07 -5.2845 -1.99797 8.21302 12.9942 -0.242716 4.98039 -88.0434 0.142931 -82.9542 5.34809 -7.22636e-06 -6.2814e-07 -69.6804 -52.3128 2.77811 24.3286 1.87007e-05 4.90208e-06 4.51307e-05 -2.45588e-06 -73.9123 22.2916 -9.88446e-07 4.63217e-06 47.4725 5.71084 -2.5812 12.9945 -0.242716 -4.98039 92.1681 -3.83011 -86.931 -5.34813 -1.25947e-06 -3.79883e-06 -76.434 -29.7382 -14.8977 -24.3289 0.000322201 -8.65921e-06 -0.000557241 0.000203707 -134.639 -22.2915 -0.000108084 -4.47941e-06 36.7999 28.2232 -24.0742 -2.19248 -6.46944 -1.22534e-07 176.591 -13.3787 9.37857 39.0811 -6.73843e-06 -1.23785e-05 -8.96897e-07 9.47748e-07 6.01882 40.9854 -6.48686e-06 -1.26872e-05 6.65017 24.1904 -64.7743 11.7543 -2.30145e-07 3.05095e-06 0.178327 0.215525 -16.714 -2.19251 6.46944 -1.45247e-06 -179.382 -35.516 178.069 -39.0811 -0.00228153 -0.0401928 1.98563e-05 -0.000109299 26.4435 -40.9854 7.72618e-06 5.99936e-06 -11.3158 -28.9454 -74.1455 -11.7543 -5.6619e-06 -5.58687e-06 -8.29627e-16 0 -16.5787 
0 0 0 0 0 -0 3.06309 92.2423 6.37882 93.1433 0.516056 2.21316 15.7357 5.1072e-06 -5.51765e-07 -94.6077 80.8506 91.1222 8.98455 -0.406207 -4.3199e-07 3.62076 0.2821 -0.797974 16.3773 -1.3905e-06 -6.99897e-07 7.27825 -1.3773 7.7131 6.45672 -1.25837e-06 -1.02172e-07 -5.63174 -2.17615 9.00579 12.9942 -0.242716 4.98039 -88.0864 -0.239652 -83.4311 5.34809 -7.22636e-06 -6.2814e-07 -68.9329 -52.1068 3.63833 24.3286 1.87007e-05 4.90208e-06 4.55713e-05 -2.10013e-06 -67.712 22.2916 -9.88446e-07 4.63217e-06 50.9736 6.09418 -3.36721 12.9945 -0.242716 -4.98039 92.0594 -3.29087 -86.3201 -5.34813 -1.25947e-06 -3.79883e-06 -77.4204 -32.2316 -16.5176 -24.3289 0.000322201 -8.65921e-06 -0.000586363 0.000205111 -135.03 -22.2915 -0.000108084 -4.47941e-06 38.3607 13.0902 -8.5521 -2.19248 -6.46944 -1.22534e-07 176.835 -11.4492 9.10041 39.0811 -6.73843e-06 -1.23785e-05 -8.96153e-07 9.44237e-07 5.99636 40.9854 -6.48686e-06 -1.26872e-05 5.71309 22.7653 -63.9657 11.7543 -2.30145e-07 3.05095e-06 0.327536 0.395855 -16.8244 -2.19251 6.46944 -1.45247e-06 -178.887 -35.092 178.452 -39.0811 -0.00228153 -0.0401928 1.77698e-05 -0.000110312 25.3548 -40.9854 7.72618e-06 5.99936e-06 -10.7345 -29.0654 -73.3901 -11.7543 -5.6619e-06 -5.58687e-06 -1.06635e-15 -7.95139e-16 -16.5787 
